<?xml version="1.0" encoding="UTF-8"?><svg xmlns="http://www.w3.org/2000/svg" xmlns:xlink="http://www.w3.org/1999/xlink" height="95.6" preserveAspectRatio="xMidYMid meet" version="1.0" viewBox="0.0 0.0 476.3 95.6" width="476.3" zoomAndPan="magnify"><g id="change1_1"><path d="M95.5664978,47.7832489c0,26.3899612-21.3932877,47.7832489-47.7832489,47.7832489S0,74.1732101,0,47.7832489 S21.3932896,0,47.7832489,0S95.5664978,21.3932896,95.5664978,47.7832489z M238.2538757,0 c-26.3899536,0-47.7832489,21.3932896-47.7832489,47.7832489s21.3932953,47.7832489,47.7832489,47.7832489 s47.7832642-21.3932877,47.7832642-47.7832489S264.6438293,0,238.2538757,0z M428.5194092,0 C402.129425,0,380.736145,21.3932896,380.736145,47.7832489s21.39328,47.7832489,47.7832642,47.7832489 c26.3899536,0,47.7832336-21.3932877,47.7832336-47.7832489S454.9093628,0,428.5194092,0z" fill="inherit"/></g></svg>