<?xml version="1.0" encoding="UTF-8"?><svg xmlns="http://www.w3.org/2000/svg" xmlns:xlink="http://www.w3.org/1999/xlink" fill="none" height="20.0" preserveAspectRatio="xMidYMid meet" style="fill: none;" version="1.0" viewBox="2.0 2.0 20.0 20.0" width="20.0" zoomAndPan="magnify"><g id="change1_1"><path clip-rule="evenodd" d="M12 4C7.58172 4 4 7.58172 4 12C4 13.2682 4.29437 14.4648 4.8176 15.5278C4.96155 15.8203 5.0137 16.162 4.94406 16.5014L4.27872 19.7434L7.65153 19.1123C7.97503 19.0518 8.29889 19.1012 8.57882 19.2339C9.61487 19.7249 10.7739 20 12 20C16.4183 20 20 16.4183 20 12C20 7.58172 16.4183 4 12 4ZM2 12C2 6.47715 6.47715 2 12 2C17.5228 2 22 6.47715 22 12C22 17.5228 17.5228 22 12 22C10.527 22 9.12598 21.6809 7.86443 21.1072L3.91523 21.8461C2.8678 22.0421 1.95576 21.114 2.16998 20.0701L2.95146 16.2622C2.34094 14.9681 2 13.5225 2 12Z" fill="#000" fill-rule="evenodd"/></g><g id="change1_2"><path clip-rule="evenodd" d="M13 10V17H11V11H10V9H12C12.5523 9 13 9.44772 13 10Z" fill="#000" fill-rule="evenodd"/></g><g id="change1_3"><path clip-rule="evenodd" d="M14 18H10V16H14V18Z" fill="#000" fill-rule="evenodd"/></g><g id="change1_4"><path clip-rule="evenodd" d="M13 6V7.5H11V6H13Z" fill="#000" fill-rule="evenodd"/></g></svg>