<?xml version="1.0" encoding="UTF-8" standalone="no"?><svg xmlns="http://www.w3.org/2000/svg" xmlns:xlink="http://www.w3.org/1999/xlink" fill="#000000" height="210.5" preserveAspectRatio="xMidYMid meet" version="1" viewBox="-0.4 -0.4 231.3 210.5" width="231.3" zoomAndPan="magnify"><g id="change1_1"><path d="m 2568.8083,416.76674 c -3.2192,3.90139 -7.553,6.81221 -12.2591,8.66607 -4.7061,1.85387 -9.7784,2.67864 -14.8353,2.78892 -10.1138,0.22055 -20.0496,-2.35456 -29.9028,-4.6464 -9.8531,-2.29184 -19.9964,-4.32806 -30.0273,-3.01779 -5.0155,0.65514 -9.9548,2.16423 -14.2999,4.75342 -4.3452,2.5892 -8.0787,6.28923 -10.3862,10.79031 -2.8627,5.58406 -3.4159,12.12699 -2.6538,18.35563 0.7622,6.22865 2.7647,12.22997 4.802,18.16515 2.3888,6.95921 4.8763,14.14793 4.2966,21.48282 -0.4356,5.51189 -2.5909,10.74632 -5.1496,15.64774 -2.5586,4.90142 -5.5476,9.58048 -7.8493,14.6077 -2.3017,5.02722 -3.9143,10.51978 -3.4924,16.03273 0.211,2.75648 0.9386,5.48796 2.2628,7.91471 1.3243,2.42675 3.2567,4.54038 5.6354,5.94903 2.2712,1.34497 4.9062,2.02518 7.5439,2.12432 2.6377,0.0992 5.2792,-0.36945 7.7842,-1.20122 5.0102,-1.66354 9.4192,-4.72546 13.7155,-7.79315 4.2964,-3.06769 8.6239,-6.21717 13.5575,-8.09583 2.4668,-0.93932 5.0742,-1.54907 7.7128,-1.62117 2.6385,-0.0721 5.3108,0.40539 7.6897,1.54908 3.962,1.90477 6.8826,5.54353 8.7384,9.52873 1.8558,3.9852 2.7559,8.33803 3.5876,12.65475 0.8317,4.31671 1.62,8.67908 3.2761,12.75133 1.6561,4.07225 4.2749,7.89161 8.029,10.17911 2.6293,1.60213 5.7225,2.38565 8.8014,2.40893 3.0788,0.0233 6.1418,-0.69676 8.966,-1.92319 5.6483,-2.45284 10.2447,-6.83532 14.1831,-11.56911 3.9384,-4.73379 7.3445,-9.89754 11.389,-14.54108 4.0444,-4.64353 8.8625,-8.832 14.6641,-10.89636 5.3857,-1.91637 11.2819,-1.89183 16.7617,-3.51982 2.7399,-0.81399 5.3982,-2.06737 7.4901,-4.01501 2.092,-1.94764 3.5751,-4.64667 3.6758,-7.50313 0.084,-2.39516 -0.7944,-4.74879 -2.0964,-6.7609 -1.3021,-2.01211 -3.0131,-3.7231 -4.7534,-5.37094 -1.7402,-1.64783 -3.5313,-3.25754 -5.0378,-5.12145 -1.5066,-1.8639 -2.7314,-4.01803 -3.1502,-6.37781 -0.5743,-3.23602 0.4554,-6.65821 2.4857,-9.2427 2.0303,-2.5845 4.9919,-4.35708 8.1575,-5.24049 3.1657,-0.88342 6.5282,-0.91477 9.7769,-0.41743 3.2487,0.49735 6.3979,1.51088 9.4654,2.69087 6.1349,2.35997 12.0815,5.42252 18.5581,6.54546 3.2382,0.56146 6.5959,0.61893 9.7889,-0.15973 3.193,-0.77865 6.2168,-2.42926 8.3641,-4.9174 1.8424,-2.13489 2.9915,-4.83261 3.4032,-7.62239 0.4116,-2.78978 0.1009,-5.66592 -0.7531,-8.35347 -1.7081,-5.3751 -5.5054,-9.87671 -9.8595,-13.46163 -4.354,-3.58492 -9.2949,-6.37151 -14.0736,-9.36696 -4.7787,-2.99546 -9.4803,-6.27211 -13.0895,-10.60604 -5.1251,-6.15425 -7.708,-14.03432 -9.3038,-21.88257 -1.5958,-7.84825 -2.3202,-15.87115 -4.3047,-23.63021 -1.9846,-7.75907 -5.3963,-15.43271 -11.3805,-20.7554 -2.9921,-2.66135 -6.5979,-4.67552 -10.5001,-5.57434 -3.9023,-0.89882 -8.1008,-0.64733 -11.7732,0.94922 -3.5449,1.5411 -6.4869,4.26595 -8.7369,7.40897 -2.25,3.14301 -3.8509,6.70272 -5.2235,10.31616 -2.7452,7.22687 -4.7504,14.98113 -9.6706,20.94396 z" fill="#e4cab5" transform="translate(-2446.984 -376.633)"/></g></svg>