<?xml version="1.0" encoding="UTF-8"?><svg xmlns="http://www.w3.org/2000/svg" xmlns:xlink="http://www.w3.org/1999/xlink" height="739.2" preserveAspectRatio="xMidYMid meet" version="1.0" viewBox="-12.3 -25.5 813.7 739.2" width="813.7" zoomAndPan="magnify"><g><g id="change1_4"><path d="M57.04,77.01C156.09-19.53,326.7-25.46,434.48,60.1c41.22,32.3,72.73,80.36,75.78,133.61 c3.85,52.15-20.64,103.08-57.83,138.62c-68.88,66.26-172.21,88.55-264.35,68.39c-27.97,18.01-55.63,36.64-83.97,54.23 c-8.12,6.84-23.14,3.11-24.91-7.94c-4.64-32.49-2.63-65.65-7.45-98.07c-28.82-28.95-55.88-61.86-65.52-102.71 C-12.33,185.71,12.34,119.51,57.04,77.01z M189.85,39.7C134.59,52.16,80.67,83.12,51.79,133.19 c-22.9,38.04-24.79,86.53-6.96,126.89c10.99,29.62,35.23,50.38,58.2,70.59c4.76,27.11,3.48,54.96,6.11,82.38 c26.08-15.88,50.32-34.93,77.98-48.18c79.81,23.75,173.55,6.84,237.24-47.88c35.11-30.47,57.77-77.06,53.01-124.09 c-3.11-50.75-36.7-94.9-78.59-121.28C337.27,32.98,260.02,24.44,189.85,39.7z" fill="inherit"/></g><g id="change1_1"><path d="M344.27,328.93c99.05-96.54,269.67-102.47,377.45-16.92c41.22,32.3,72.73,80.36,75.78,133.61 c3.85,52.15-20.64,103.08-57.83,138.62c-68.88,66.26-172.21,88.55-264.35,68.39c-27.97,18.01-55.63,36.64-83.97,54.23 c-8.12,6.84-23.14,3.11-24.91-7.94c-4.64-32.49-2.63-65.65-7.45-98.07c-28.82-28.95-55.88-61.86-65.52-102.71 C274.9,437.63,299.57,371.44,344.27,328.93z M477.09,291.62c-55.26,12.46-109.19,43.42-138.07,93.49 c-22.9,38.04-24.79,86.53-6.96,126.89c10.99,29.62,35.23,50.38,58.2,70.59c4.76,27.11,3.48,54.96,6.11,82.38 c26.08-15.88,50.32-34.93,77.98-48.18c79.81,23.75,173.55,6.84,237.24-47.88c35.11-30.47,57.77-77.06,53.01-124.09 c-3.11-50.75-36.7-94.9-78.59-121.28C624.5,284.91,547.26,276.36,477.09,291.62z" fill="inherit"/></g><g id="change1_2"><path d="M168.36,223.88c-14.29-56.67,30.04-122.93,90.07-124.15c58.5-0.31,103.51,62.23,93.13,117.92 c-3.91,26.56-19.36,49.89-39.33,67.17c5.68,8.61,13.98,15.57,18.01,25.22c0,9.59-6.72,18.14-16.92,17.77 c-15.02-1.22-22.29-16.49-30.53-27.05C230.89,315.23,178.44,274.13,168.36,223.88z M239.13,135.64 c-51.48,18.69-54.71,102.04-8.24,128.12c12.09,7.33,26.44,6.78,40,6.78c-8.73-8.43-22.96-21.13-10.99-33.46 c16.18-14.23,31.57,6.66,41.04,18.26c18.87-23.02,24.79-55.45,14.29-83.42C305.39,141.44,269,124.22,239.13,135.64z" fill="inherit"/></g><g id="change1_3"><path d="M481.26,348.33c4.64-15.08,26.14-13.68,31.88-0.12c23.08,55.51,52.7,108.09,75.78,163.66 c6.41,13.68-12.46,27.11-24.43,18.5c-8.43-10.2-12.88-22.96-18.81-34.62c-32.67-0.18-65.34-0.12-98.01-0.18 c-7.76,15.39-17.89,50.26-40.43,32.12c-1.16-2.63-3.42-7.94-4.52-10.63C425.39,459.41,455.61,404.81,481.26,348.33z M462.7,463.13 c22.59-0.18,45.19-0.18,67.78,0c-11.24-23.57-22.29-47.2-33.89-70.59C484.92,415.87,474.18,439.68,462.7,463.13z" fill="inherit"/></g></g></svg>