<?xml version="1.0" encoding="utf-8" standalone="no"?><!-- Generator: Adobe Illustrator 16.0.0, SVG Export Plug-In . SVG Version: 6.00 Build 0)  --><svg xmlns="http://www.w3.org/2000/svg" xmlns:xlink="http://www.w3.org/1999/xlink" enable-background="new 0 0 350 350.007" fill="#000000" height="350.007px" id="Layer_1" version="1.1" viewBox="0 0 350 350.007" width="350px" x="0px" xml:space="preserve" y="0px">
<g id="change1">
	<path d="M350,175.004c0,96.623-78.366,175.003-174.996,175.003C78.324,350,0,271.627,0,175.004   C0,78.366,78.324,0,174.996,0C271.627,0,350,78.366,350,175.004z" fill="#000000"/>
</g>
<g id="change2">
	<path d="M104.389,126.119c0-9.132,2.921-18.405,8.792-27.806c5.864-9.379,14.451-17.167,25.733-23.35   c11.289-6.153,24.403-9.237,39.463-9.237c13.97,0,26.264,2.581,36.966,7.73c10.688,5.15,18.942,12.16,24.799,21.016   c5.821,8.87,8.743,18.511,8.743,28.909c0,8.177-1.662,15.356-4.98,21.538c-3.317,6.154-7.285,11.467-11.876,15.965   c-4.591,4.471-12.796,12.018-24.658,22.614c-3.268,2.978-5.863,5.602-7.865,7.858c-1.959,2.264-3.409,4.35-4.386,6.218   c-0.976,1.889-1.697,3.77-2.256,5.645c-0.517,1.874-1.316,5.178-2.377,9.874c-1.818,10.009-7.583,15.045-17.188,15.045   c-5.029,0-9.238-1.647-12.647-4.916c-3.431-3.289-5.135-8.162-5.135-14.606c0-8.099,1.272-15.095,3.77-21.022   c2.483-5.927,5.801-11.126,9.96-15.589c4.151-4.499,9.719-9.812,16.75-15.993c6.188-5.397,10.638-9.457,13.375-12.216   c2.73-2.73,5.072-5.779,6.925-9.153c1.925-3.374,2.851-7.031,2.851-10.985c0-7.717-2.871-14.203-8.601-19.508   c-5.765-5.298-13.136-7.958-22.168-7.958c-10.604,0-18.42,2.674-23.441,8.028c-4.987,5.341-9.217,13.221-12.697,23.625   c-3.268,10.865-9.507,16.305-18.652,16.305c-5.361,0-9.959-1.896-13.673-5.68C106.243,134.699,104.389,130.561,104.389,126.119z    M174.904,284.471c-5.899,0-11.034-1.909-15.434-5.68c-4.357-3.806-6.536-9.132-6.536-15.972c0-6.055,2.087-11.155,6.352-15.307   c4.244-4.139,9.415-6.218,15.618-6.218c6.048,0,11.127,2.079,15.278,6.218c4.146,4.151,6.189,9.252,6.189,15.307   c0,6.762-2.15,12.031-6.493,15.894C185.599,282.576,180.57,284.471,174.904,284.471z" fill="#ffffff"/>
</g>
</svg>